<svg width="57" height="57" viewBox="0 0 57 57" fill="none" xmlns="http://www.w3.org/2000/svg">
<path fillRule="evenodd" clipRule="evenodd" d="M28.412 -1.52588e-05C43.6496 -1.52588e-05 56.0459 12.3963 56.0459 27.6339C56.0459 41.9914 45.0577 53.8094 31.0522 55.142C30.5493 56.0975 29.5686 56.7764 28.412 56.7764C26.7524 56.7764 25.4198 55.4438 25.4198 53.7842C25.4198 52.1247 26.7524 50.792 28.412 50.792C29.468 50.792 30.3984 51.3452 30.9264 52.1498C43.3227 50.8926 53.0537 40.3822 53.0537 27.6339C53.0537 14.0558 42.0152 2.99219 28.412 2.99219C14.8087 2.99219 3.77029 14.0307 3.77029 27.6339H0.75293C0.75293 12.3963 13.1492 -1.52588e-05 28.3868 -1.52588e-05L28.412 -1.52588e-05Z" fill="#4286C7"/>
<path fillRule="evenodd" clipRule="evenodd" d="M28.4125 7.14096C39.7276 7.14096 48.9305 16.3439 48.9305 27.6589C48.9305 38.974 39.7276 48.1769 28.4125 48.1769C17.0974 48.1769 7.89453 38.974 7.89453 27.6589C7.89453 16.3439 17.0974 7.14096 28.4125 7.14096ZM28.4125 45.1344C38.068 45.1344 45.9131 37.2893 45.9131 27.6338C45.9131 17.9783 38.068 10.1332 28.4125 10.1332C18.757 10.1332 10.9119 17.9783 10.9119 27.6338C10.9119 37.2893 18.757 45.1344 28.4125 45.1344Z" fill="white"/>
<path fillRule="evenodd" clipRule="evenodd" d="M26.1742 17.8023C26.5514 16.9223 27.4063 16.3188 28.4121 16.3188C29.7699 16.3188 30.8511 17.4 30.8511 18.7578C30.8511 20.1156 29.7699 21.1968 28.4121 21.1968C27.6326 21.1968 26.9286 20.8197 26.5011 20.2413C23.2826 21.0963 20.919 24.013 20.919 27.483C20.919 31.6318 24.2884 35.0012 28.4372 35.0012C32.5861 35.0012 35.9555 31.6318 35.9555 27.483H38.3945C38.3945 32.9645 33.9188 37.4402 28.4372 37.4402C22.9557 37.4402 18.48 32.9645 18.48 27.483C18.48 22.7558 21.7739 18.8081 26.1994 17.7772L26.1742 17.8023Z" fill="#4286C7"/>
<path fillRule="evenodd" clipRule="evenodd" d="M19.0078 25.421C19.0078 25.421 24.1122 30.5505 24.9922 31.3803C25.8723 32.21 27.4564 32.9644 28.6885 32.3358C29.9206 31.7071 32.2841 29.3436 32.2841 29.3436C31.731 29.6704 30.7252 30.0727 28.5376 28.8658C26.35 27.684 24.6151 25.0941 22.8046 24.6918C20.9942 24.2895 19.0078 25.3959 19.0078 25.3959V25.421Z" fill="#51B36D"/>
<path fillRule="evenodd" clipRule="evenodd" d="M28.2358 27.5081C28.2358 27.5081 29.0908 28.1619 30.2474 28.4888C31.4041 28.8156 32.2338 28.6648 32.8876 28.4888C33.5162 28.3128 35.3266 26.3263 35.3266 26.3263L40.1041 21.0208C37.2125 19.4367 35.3015 19.9648 33.3653 22.1775C32.611 23.0324 28.2358 27.5333 28.2358 27.5333V27.5081Z" fill="white"/>
</svg>
