<svg width="169" height="72" viewBox="0 0 169 72" fill="none" xmlns="http://www.w3.org/2000/svg">
<path d="M18.3647 52.1078C17.8302 52.787 17.1985 53.3207 16.4696 53.6603C15.7407 54 14.9633 54.194 14.0886 54.194C12.8738 54.194 11.8048 53.9029 10.8816 53.3692C9.90974 52.8355 8.84072 51.9137 7.62593 50.5552C6.16818 50.3612 4.9048 49.876 3.78719 49.0997C2.62099 48.3234 1.74634 47.3046 1.11465 46.0431C0.531548 44.8302 0.191406 43.4717 0.191406 41.9676C0.191406 40.3181 0.580139 38.8625 1.30901 37.5526C2.08648 36.1941 3.10691 35.1752 4.41888 34.4474C5.73085 33.6712 7.2372 33.3315 8.88931 33.3315C10.5414 33.3315 11.9992 33.6712 13.3112 34.4474C14.6231 35.1752 15.6921 36.1941 16.421 37.5526C17.1985 38.8625 17.5386 40.3181 17.5386 41.9676C17.5386 43.9083 17.0527 45.6065 15.9837 47.062C14.9633 48.566 13.6027 49.5849 11.902 50.1186C12.2907 50.5552 12.6309 50.8463 12.971 51.0404C13.3597 51.2345 13.7485 51.3315 14.1372 51.3315C15.109 51.3315 15.9837 50.8948 16.7126 50.0701L18.3647 52.1078ZM3.93296 41.9676C3.93296 42.9865 4.12733 43.9083 4.56465 44.7331C5.00198 45.5579 5.58508 46.1887 6.31395 46.6253C7.09142 47.1105 7.91748 47.3046 8.88931 47.3046C9.81255 47.3046 10.6386 47.1105 11.4161 46.6253C12.1935 46.1887 12.7766 45.5579 13.214 44.7331C13.6027 43.9083 13.8457 42.9865 13.8457 41.9676C13.8457 40.9488 13.6027 40.0269 13.214 39.2022C12.7766 38.3774 12.1935 37.7466 11.4161 37.31C10.6386 36.8248 9.81255 36.6307 8.88931 36.6307C7.91748 36.6307 7.09142 36.8248 6.31395 37.31C5.58508 37.7466 5.00198 38.3774 4.56465 39.2022C4.12733 40.0269 3.93296 40.9488 3.93296 41.9676ZM30.5612 46.7709H23.1753L21.7661 50.3126H18.0245L25.0703 33.6226H28.7147L35.8091 50.3126H31.9703L30.5612 46.7709ZM29.395 43.8113L26.8682 37.407L24.3415 43.8113H29.395ZM44.8471 50.6037C43.195 50.6037 41.7373 50.2641 40.4253 49.4878C39.1133 48.7601 38.0929 47.7412 37.364 46.4312C36.5866 45.1213 36.2464 43.6172 36.2464 41.9676C36.2464 40.3181 36.5866 38.814 37.364 37.504C38.0929 36.1941 39.1133 35.1752 40.4253 34.4474C41.7373 33.6712 43.195 33.3315 44.8471 33.3315C46.2077 33.3315 47.4711 33.5741 48.5887 34.0593C49.7063 34.593 50.6295 35.3208 51.3584 36.2911L49.026 38.5714C47.957 37.2615 46.5964 36.6307 45.0415 36.6307C44.0697 36.6307 43.1464 36.8248 42.4175 37.31C41.6401 37.7466 41.0084 38.3774 40.6197 39.2022C40.1823 40.0269 39.9394 40.9488 39.9394 41.9676C39.9394 42.9865 40.1823 43.9083 40.6197 44.7331C41.0084 45.5579 41.6401 46.1887 42.4175 46.6253C43.1464 47.1105 44.0697 47.3046 45.0415 47.3046C46.5964 47.3046 47.957 46.6738 49.026 45.3153L51.3584 47.6442C50.6295 48.6145 49.7063 49.3423 48.5887 49.876C47.4711 50.3612 46.2077 50.6037 44.8471 50.6037ZM53.8366 33.6226H57.5296V50.3126H53.8366V33.6226ZM66.519 50.6037C65.2556 50.6037 64.0408 50.4582 62.8746 50.0701C61.7084 49.7304 60.7366 49.2453 60.0563 48.663L61.2711 45.752C61.9514 46.2857 62.7774 46.7224 63.7007 47.0135C64.6239 47.3531 65.5958 47.4986 66.519 47.4986C67.5394 47.4986 68.3169 47.3531 68.8514 47.0135C69.3373 46.6738 69.5803 46.2857 69.5803 45.7035C69.5803 45.3153 69.4345 44.9757 69.143 44.7331C68.8514 44.442 68.4627 44.248 68.0253 44.1024C67.5394 43.9569 66.9077 43.7628 66.1303 43.5687C64.9155 43.2776 63.9436 42.9865 63.1662 42.6469C62.3887 42.3558 61.7084 41.8706 61.1739 41.1914C60.6394 40.5121 60.3479 39.6388 60.3479 38.5229C60.3479 37.5526 60.5908 36.6792 61.0767 35.903C61.6112 35.0782 62.3401 34.4474 63.3605 34.0108C64.381 33.5256 65.5958 33.3315 67.0535 33.3315C68.0739 33.3315 69.0458 33.4286 70.0176 33.7197C70.9894 33.9623 71.8155 34.3019 72.5444 34.7871L71.4268 37.7466C69.969 36.8733 68.4627 36.4367 67.0049 36.4367C65.9845 36.4367 65.207 36.5822 64.7211 36.9703C64.2352 37.31 63.9922 37.7466 63.9922 38.3288C63.9922 38.911 64.2838 39.3477 64.8669 39.5903C65.4014 39.8814 66.276 40.1725 67.4422 40.4151C68.657 40.7547 69.6289 41.0458 70.4063 41.3369C71.1838 41.628 71.8641 42.1132 72.3986 42.7924C72.9331 43.4232 73.2247 44.2965 73.2247 45.4124C73.2247 46.3827 72.9817 47.256 72.4472 48.0323C71.9613 48.8571 71.1838 49.4878 70.212 49.9245C69.1915 50.4097 67.9282 50.6037 66.519 50.6037ZM93.0014 47.159V50.3126H81.0479V47.8383L87.1219 41.7251C87.8021 41.0943 88.2395 40.5121 88.4824 40.0269C88.6768 39.5903 88.8226 39.1051 88.8226 38.6685C88.8226 37.9892 88.5796 37.4555 88.1423 37.1159C87.705 36.7278 87.0733 36.5822 86.2472 36.5822C85.5669 36.5822 84.9352 36.7278 84.4007 36.9703C83.8176 37.2615 83.3317 37.6981 82.9916 38.2318L80.319 36.4367C80.9021 35.4663 81.7768 34.69 82.8458 34.1563C83.9634 33.5741 85.1782 33.3315 86.5873 33.3315C87.8021 33.3315 88.8226 33.5256 89.6972 33.9138C90.5719 34.3504 91.2521 34.8841 91.7381 35.6604C92.224 36.3881 92.5155 37.2615 92.5155 38.2803C92.5155 39.1536 92.3212 40.0269 91.9324 40.8032C91.5923 41.628 90.8634 42.5013 89.843 43.5687L86.1986 47.159H93.0014ZM101.311 50.6037C99.9501 50.6037 98.7839 50.2641 97.7634 49.5849C96.743 48.9056 95.9655 47.9353 95.3824 46.6253C94.7993 45.3153 94.5078 43.7628 94.5078 41.9676C94.5078 40.1725 94.7993 38.6199 95.3824 37.31C95.9655 36 96.743 35.0297 97.7634 34.3504C98.7839 33.6712 99.9501 33.3315 101.311 33.3315C102.623 33.3315 103.789 33.6712 104.809 34.3504C105.83 35.0297 106.656 36 107.239 37.31C107.773 38.6199 108.065 40.1725 108.065 41.9676C108.065 43.7628 107.773 45.3153 107.239 46.6253C106.656 47.9353 105.83 48.9056 104.809 49.5849C103.789 50.2641 102.623 50.6037 101.311 50.6037ZM101.311 47.3531C102.234 47.3531 103.011 46.9164 103.546 46.0431C104.129 45.1698 104.372 43.8113 104.372 41.9676C104.372 40.124 104.129 38.7655 103.546 37.8922C103.011 37.0189 102.234 36.5822 101.311 36.5822C100.339 36.5822 99.5613 37.0189 99.0268 37.8922C98.4923 38.7655 98.2007 40.124 98.2007 41.9676C98.2007 43.8113 98.4923 45.1698 99.0268 46.0431C99.5613 46.9164 100.339 47.3531 101.311 47.3531ZM121.573 47.159V50.3126H109.62V47.8383L115.742 41.7251C116.374 41.0943 116.811 40.5121 117.054 40.0269C117.249 39.5903 117.394 39.1051 117.394 38.6685C117.394 37.9892 117.151 37.4555 116.714 37.1159C116.325 36.7278 115.694 36.5822 114.819 36.5822C114.139 36.5822 113.507 36.7278 112.973 36.9703C112.39 37.2615 111.952 37.6981 111.563 38.2318L108.891 36.4367C109.523 35.4663 110.349 34.69 111.466 34.1563C112.535 33.5741 113.799 33.3315 115.159 33.3315C116.374 33.3315 117.394 33.5256 118.269 33.9138C119.144 34.3504 119.824 34.8841 120.359 35.6604C120.844 36.3881 121.087 37.2615 121.087 38.2803C121.087 39.1536 120.893 40.0269 120.553 40.8032C120.164 41.628 119.484 42.5013 118.415 43.5687L114.771 47.159H121.573ZM128.571 39.8814C130.806 39.8814 132.458 40.3666 133.527 41.2884C134.596 42.2588 135.13 43.5202 135.13 45.0728C135.13 46.0916 134.887 47.0135 134.402 47.8383C133.916 48.7116 133.138 49.3423 132.166 49.876C131.194 50.3612 129.98 50.6037 128.522 50.6037C127.404 50.6037 126.287 50.4582 125.218 50.1671C124.149 49.8275 123.225 49.3908 122.448 48.8086L123.906 45.849C124.537 46.3342 125.218 46.7224 125.995 46.9649C126.773 47.256 127.599 47.3531 128.425 47.3531C129.348 47.3531 130.077 47.159 130.611 46.8194C131.146 46.4312 131.389 45.8976 131.389 45.2183C131.389 44.4905 131.097 43.9569 130.563 43.5687C130.028 43.1806 129.056 43.035 127.696 43.035H123.614L124.44 33.6226H134.11V36.7278H127.502L127.259 39.8814H128.571Z" fill="#FEFEFE"/>
<path d="M5.68522 60.3556C5.68522 61.0833 5.44227 61.7626 4.90776 62.2963L5.49086 62.927L5.00494 63.3636L4.37325 62.7329C3.93592 63.024 3.40142 63.2181 2.81832 63.2181C2.04085 63.2181 1.36057 62.927 0.826058 62.3448C0.29155 61.8111 0 61.1318 0 60.3556C0 59.5793 0.29155 58.9 0.826058 58.3663C1.36057 57.7841 2.04085 57.493 2.81832 57.493C3.59578 57.493 4.27607 57.7841 4.85917 58.3663C5.39367 58.9 5.68522 59.5793 5.68522 60.3556ZM2.81832 62.4903C3.20705 62.4903 3.54719 62.3933 3.88733 62.1992L2.76972 61.1318L3.25564 60.6467L4.42184 61.8111C4.76198 61.3744 4.95635 60.9378 4.95635 60.3556C4.95635 59.7733 4.76198 59.2397 4.32466 58.8515C3.93592 58.4149 3.45001 58.2208 2.81832 58.2208C2.23522 58.2208 1.7493 58.4149 1.31197 58.8515C0.923242 59.2397 0.728875 59.7733 0.728875 60.3556C0.728875 60.9378 0.923242 61.4715 1.31197 61.8596C1.7493 62.2963 2.23522 62.4903 2.81832 62.4903ZM9.28101 59.1911H9.96129V63.0725H9.28101V62.5388C8.98946 62.9755 8.55213 63.2181 8.01762 63.2181C7.53171 63.2181 7.19156 63.0725 6.90002 62.7814C6.60847 62.4903 6.46269 62.1022 6.46269 61.5685V59.1911H7.14297V61.5685C7.14297 61.8596 7.24016 62.1022 7.43452 62.2963C7.5803 62.4418 7.82326 62.5388 8.11481 62.5388C8.45495 62.5388 8.7465 62.4418 8.94086 62.2477C9.18382 62.0052 9.28101 61.714 9.28101 61.2774V59.1911ZM14.2374 59.1911H14.9176V63.0725H14.2374V62.4418C13.8972 62.927 13.4113 63.2181 12.731 63.2181C12.1965 63.2181 11.7106 62.9755 11.3219 62.5874C10.9817 62.1992 10.7873 61.714 10.7873 61.1318C10.7873 60.5496 10.9817 60.0645 11.3219 59.6763C11.7106 59.2882 12.1965 59.0941 12.731 59.0941C13.4113 59.0941 13.8972 59.3367 14.2374 59.8704V59.1911ZM12.8282 62.5388C13.2169 62.5388 13.5571 62.3933 13.8486 62.1507C14.0916 61.8596 14.2374 61.52 14.2374 61.1318C14.2374 60.7437 14.0916 60.4041 13.8486 60.1615C13.5571 59.8704 13.2169 59.7248 12.8282 59.7248C12.4395 59.7248 12.0993 59.8704 11.8564 60.1615C11.5648 60.4041 11.4676 60.7437 11.4676 61.1318C11.4676 61.52 11.5648 61.8596 11.8564 62.1507C12.0993 62.3933 12.4395 62.5388 12.8282 62.5388ZM15.9381 63.0725V57.396H16.6183V63.0725H15.9381ZM18.0275 58.4634C17.8817 58.4634 17.7845 58.4149 17.6874 58.3178C17.5902 58.2693 17.5416 58.1238 17.5416 58.0267C17.5416 57.8812 17.5902 57.7841 17.6874 57.6871C17.7845 57.5901 17.8817 57.5415 18.0275 57.5415C18.1247 57.5415 18.2219 57.5901 18.3191 57.6871C18.4162 57.7841 18.4648 57.8812 18.4648 58.0267C18.4648 58.1238 18.4162 58.2693 18.3191 58.3178C18.2219 58.4149 18.1247 58.4634 18.0275 58.4634ZM17.6874 63.0725V59.1911H18.3676V63.0725H17.6874ZM21.5261 59.8219H20.4571V61.9566C20.4571 62.1507 20.5057 62.2963 20.6029 62.3933C20.6515 62.4418 20.7972 62.4903 20.943 62.4903C21.0888 62.4903 21.2831 62.4903 21.5261 62.4903V63.0725C20.943 63.1696 20.5057 63.1211 20.2141 62.927C19.9226 62.7814 19.7768 62.4418 19.7768 61.9566V59.8219H18.9993V59.1911H19.7768V58.2693L20.4571 58.0752V59.1911H21.5261V59.8219ZM25.1705 59.1911H25.8994L24.2958 63.3151C24.1015 63.8003 23.8585 64.1399 23.567 64.334C23.2754 64.5766 22.9353 64.6736 22.5465 64.6736V64.0429C23.0324 64.0429 23.3726 63.8003 23.6155 63.2181L23.6641 63.0725L21.9634 59.1911H22.6923L24.0043 62.2477L25.1705 59.1911ZM32.0705 63.0725L31.6332 61.8596H29.155L28.7177 63.0725H27.9402L29.9811 57.6386H30.8071L32.848 63.0725H32.0705ZM29.4465 61.1804H31.3902L30.4184 58.4634L29.4465 61.1804ZM34.0142 60.2585C34.0142 60.4041 34.0628 60.5011 34.2085 60.5981C34.3543 60.6952 34.5487 60.7437 34.7916 60.8407C34.986 60.8893 35.1804 60.9378 35.4233 60.9863C35.6177 61.0833 35.8121 61.1804 35.9578 61.3744C36.1036 61.52 36.2008 61.7626 36.2008 62.0052C36.2008 62.3933 36.055 62.6844 35.7635 62.8785C35.5205 63.0725 35.1318 63.2181 34.743 63.2181C34.3543 63.2181 34.0142 63.1211 33.7226 62.927C33.4797 62.7814 33.2853 62.5388 33.1881 62.2963L33.7712 61.9566C33.8198 62.1507 33.917 62.2963 34.1113 62.3933C34.2571 62.4903 34.5001 62.5388 34.743 62.5388C34.9374 62.5388 35.1318 62.4903 35.2775 62.4418C35.4233 62.3448 35.5205 62.1992 35.5205 62.0052C35.5205 61.8596 35.4233 61.7626 35.2775 61.6655C35.1318 61.5685 34.9374 61.4715 34.743 61.4229C34.5001 61.3744 34.3057 61.3259 34.0628 61.2289C33.8684 61.1804 33.674 61.0348 33.5282 60.8893C33.3825 60.7437 33.2853 60.5011 33.2853 60.2585C33.2853 59.9189 33.4311 59.6278 33.7226 59.3852C33.9656 59.1911 34.3057 59.0941 34.6944 59.0941C34.986 59.0941 35.2775 59.1426 35.5205 59.2882C35.8121 59.4337 35.9578 59.6278 36.1036 59.8704L35.5205 60.21C35.3747 59.8704 35.1318 59.7248 34.6944 59.7248C34.5001 59.7248 34.3543 59.7734 34.2085 59.8704C34.0628 59.9189 34.0142 60.0645 34.0142 60.2585ZM37.3184 60.2585C37.3184 60.4041 37.4156 60.5011 37.5614 60.5981C37.7071 60.6952 37.9015 60.7437 38.0959 60.8407C38.3388 60.8893 38.5332 60.9378 38.7761 60.9863C38.9705 61.0833 39.1649 61.1804 39.3107 61.3744C39.4564 61.52 39.5536 61.7626 39.5536 62.0052C39.5536 62.3933 39.4078 62.6844 39.1163 62.8785C38.8247 63.0725 38.4846 63.2181 38.0473 63.2181C37.7071 63.2181 37.367 63.1211 37.0754 62.927C36.8325 62.7814 36.6381 62.5388 36.4923 62.2963L37.0754 61.9566C37.1726 62.1507 37.2698 62.2963 37.4642 62.3933C37.6099 62.4903 37.8043 62.5388 38.0473 62.5388C38.2902 62.5388 38.4846 62.4903 38.6304 62.4418C38.7761 62.3448 38.8247 62.1992 38.8247 62.0052C38.8247 61.8596 38.7761 61.7626 38.6304 61.6655C38.4846 61.5685 38.2902 61.4715 38.0473 61.4229C37.8529 61.3744 37.6585 61.3259 37.4156 61.2289C37.2212 61.1804 37.0268 61.0348 36.8811 60.8893C36.7353 60.7437 36.6381 60.5011 36.6381 60.2585C36.6381 59.9189 36.7839 59.6278 37.0268 59.3852C37.3184 59.1911 37.6585 59.0941 38.0473 59.0941C38.3388 59.0941 38.6304 59.1426 38.8733 59.2882C39.1163 59.4337 39.3106 59.6278 39.4564 59.8704L38.8733 60.21C38.7276 59.8704 38.436 59.7248 38.0473 59.7248C37.8529 59.7248 37.6585 59.7734 37.5614 59.8704C37.4156 59.9189 37.3184 60.0645 37.3184 60.2585ZM43.0036 59.1911H43.6839V63.0725H43.0036V62.5388C42.7121 62.9755 42.3233 63.2181 41.7402 63.2181C41.2543 63.2181 40.9142 63.0725 40.6226 62.7814C40.3311 62.4903 40.2339 62.1022 40.2339 61.5685V59.1911H40.9142V61.5685C40.9142 61.8596 40.9628 62.1022 41.1571 62.2963C41.3515 62.4418 41.5459 62.5388 41.886 62.5388C42.2261 62.5388 42.4691 62.4418 42.7121 62.2477C42.9064 62.0052 43.0036 61.714 43.0036 61.2774V59.1911ZM45.3846 59.8219C45.6276 59.3367 46.0163 59.0941 46.648 59.0941V59.8219C46.3079 59.8219 46.0163 59.9189 45.7733 60.113C45.5304 60.2585 45.3846 60.5981 45.3846 61.0348V63.0725H44.7043V59.1911H45.3846V59.8219ZM50.341 59.1911H51.0212V63.0725H50.341V62.4418C50.0008 62.927 49.4663 63.2181 48.8346 63.2181C48.3001 63.2181 47.8142 62.9755 47.4255 62.5874C47.0367 62.1992 46.8424 61.714 46.8424 61.1318C46.8424 60.5496 47.0367 60.0645 47.4255 59.6763C47.8142 59.2882 48.3001 59.0941 48.8346 59.0941C49.4663 59.0941 50.0008 59.3367 50.341 59.8704V59.1911ZM48.9318 62.5388C49.3205 62.5388 49.6607 62.3933 49.9036 62.1507C50.1952 61.8596 50.341 61.52 50.341 61.1318C50.341 60.7437 50.1952 60.4041 49.9036 60.1615C49.6607 59.8704 49.3205 59.7248 48.9318 59.7248C48.5431 59.7248 48.2029 59.8704 47.96 60.1615C47.6684 60.4041 47.5226 60.7437 47.5226 61.1318C47.5226 61.52 47.6684 61.8596 47.96 62.1507C48.2029 62.3933 48.5431 62.5388 48.9318 62.5388ZM53.9853 59.0941C54.4712 59.0941 54.8114 59.2397 55.1029 59.5308C55.3459 59.8219 55.4917 60.21 55.4917 60.6952V63.0725H54.8114V60.7437C54.8114 60.4041 54.7628 60.1615 54.5684 59.9674C54.3741 59.8219 54.1797 59.7248 53.8396 59.7248C53.4994 59.7248 53.2565 59.8219 53.0135 60.0645C52.8191 60.2585 52.7219 60.5981 52.7219 61.0348V63.0725H52.0417V59.1911H52.7219V59.7248C53.0135 59.2882 53.4022 59.0941 53.9853 59.0941ZM58.31 63.2181C57.7269 63.2181 57.1924 62.9755 56.8036 62.5874C56.4149 62.1992 56.2205 61.714 56.2205 61.1318C56.2205 60.5496 56.4149 60.0645 56.8036 59.6763C57.1924 59.2882 57.7269 59.0941 58.31 59.0941C58.6987 59.0941 59.0389 59.1911 59.3304 59.3367C59.6706 59.5308 59.8649 59.7734 60.0107 60.113L59.4762 60.4526C59.379 60.21 59.1846 60.0645 58.9903 59.9189C58.7959 59.8219 58.5529 59.7248 58.31 59.7248C57.9213 59.7248 57.5811 59.8704 57.3382 60.1615C57.0466 60.4041 56.9008 60.7437 56.9008 61.1318C56.9008 61.52 57.0466 61.8596 57.3382 62.1022C57.5811 62.3933 57.9213 62.5388 58.31 62.5388C58.5529 62.5388 58.7959 62.4418 58.9903 62.3448C59.2332 62.1992 59.379 62.0537 59.4762 61.8596L60.0593 62.1992C59.9135 62.4903 59.6706 62.7329 59.3304 62.927C59.0389 63.1211 58.6987 63.2181 58.31 63.2181ZM61.1769 61.4715C61.2255 61.8111 61.3713 62.0537 61.6628 62.2477C61.9058 62.4418 62.1973 62.5388 62.5861 62.5388C63.072 62.5388 63.4607 62.3448 63.7037 62.0052L64.2868 62.2963C63.898 62.8785 63.3149 63.2181 62.5375 63.2181C61.9544 63.2181 61.4199 63.024 61.0311 62.6359C60.6424 62.2477 60.448 61.714 60.448 61.1318C60.448 60.5496 60.6424 60.0645 61.0311 59.6763C61.4199 59.2882 61.9058 59.0941 62.4889 59.0941C63.072 59.0941 63.5579 59.2882 63.898 59.6763C64.2868 60.113 64.4811 60.5981 64.4811 61.1318C64.4811 61.2289 64.4325 61.3259 64.4325 61.4715H61.1769ZM62.4889 59.7248C62.1487 59.7248 61.8572 59.8219 61.6142 60.0159C61.3713 60.2585 61.2255 60.5011 61.1769 60.8407H63.7523C63.7037 60.5011 63.5579 60.21 63.3149 60.0159C63.1206 59.8219 62.829 59.7248 62.4889 59.7248ZM67.5424 58.4634C67.3966 58.4634 67.2994 58.4149 67.2023 58.3178C67.1537 58.2693 67.1051 58.1238 67.1051 58.0267C67.1051 57.8812 67.1537 57.7841 67.2023 57.6871C67.2994 57.5901 67.3966 57.5415 67.5424 57.5415C67.6882 57.5415 67.7854 57.5901 67.8825 57.6871C67.9797 57.7841 68.0283 57.8812 68.0283 58.0267C68.0283 58.1238 67.9797 58.2693 67.8825 58.3178C67.7854 58.4149 67.6882 58.4634 67.5424 58.4634ZM67.2023 63.0725V59.1911H67.8825V63.0725H67.2023ZM70.8952 59.0941C71.3326 59.0941 71.7213 59.2397 71.9642 59.5308C72.2558 59.8219 72.4016 60.21 72.4016 60.6952V63.0725H71.7213V60.7437C71.7213 60.4041 71.6241 60.1615 71.4783 59.9674C71.284 59.8219 71.041 59.7248 70.7495 59.7248C70.4093 59.7248 70.1178 59.8219 69.9234 60.0645C69.729 60.2585 69.6318 60.5981 69.6318 61.0348V63.0725H68.9516V59.1911H69.6318V59.7248C69.8748 59.2882 70.3121 59.0941 70.8952 59.0941ZM77.941 63.2181C77.115 63.2181 76.4347 62.927 75.9002 62.3933C75.3657 61.8111 75.0741 61.1318 75.0741 60.3556C75.0741 59.5793 75.3657 58.9 75.9002 58.3178C76.4347 57.7841 77.115 57.493 77.941 57.493C78.4755 57.493 78.9129 57.6386 79.3502 57.8812C79.7389 58.1238 80.0791 58.4149 80.322 58.8515L79.6903 59.1911C79.5445 58.9 79.3016 58.6575 78.9614 58.5119C78.6699 58.3178 78.3298 58.2208 77.941 58.2208C77.3093 58.2208 76.8234 58.4149 76.3861 58.8515C75.9974 59.2397 75.803 59.7248 75.803 60.3556C75.803 60.9378 75.9974 61.4715 76.3861 61.8596C76.8234 62.2963 77.3093 62.4903 77.941 62.4903C78.3298 62.4903 78.6699 62.3933 78.9614 62.1992C79.3016 62.0537 79.5445 61.8111 79.6903 61.52L80.322 61.8596C80.0791 62.2477 79.7875 62.5874 79.3502 62.8299C78.9129 63.0725 78.4755 63.2181 77.941 63.2181ZM84.3551 62.5874C83.9664 62.9755 83.4805 63.2181 82.8974 63.2181C82.3143 63.2181 81.8284 62.9755 81.4396 62.5874C81.0509 62.1992 80.8565 61.714 80.8565 61.1318C80.8565 60.5496 81.0509 60.0645 81.4396 59.6763C81.8284 59.2882 82.3143 59.0941 82.8974 59.0941C83.4805 59.0941 83.9664 59.2882 84.3551 59.6763C84.7439 60.0645 84.9868 60.5496 84.9868 61.1318C84.9868 61.714 84.7439 62.1992 84.3551 62.5874ZM82.8974 62.5388C83.2861 62.5388 83.6262 62.3933 83.8692 62.1507C84.1608 61.8596 84.3065 61.52 84.3065 61.1318C84.3065 60.7437 84.1608 60.4041 83.8692 60.1615C83.6262 59.8704 83.2861 59.7248 82.8974 59.7248C82.5086 59.7248 82.1685 59.8704 81.9255 60.1615C81.634 60.4041 81.5368 60.7437 81.5368 61.1318C81.5368 61.52 81.634 61.8596 81.9255 62.1507C82.1685 62.3933 82.5086 62.5388 82.8974 62.5388ZM89.9918 59.0941C90.4291 59.0941 90.8178 59.2397 91.0608 59.5308C91.3523 59.7734 91.4981 60.1615 91.4981 60.6467V63.0725H90.8178V60.6952C90.8178 60.4041 90.7206 60.1615 90.5748 59.9674C90.3805 59.8219 90.1861 59.7248 89.9432 59.7248C89.6516 59.7248 89.4087 59.8219 89.2143 60.0159C89.0685 60.21 88.9713 60.5011 88.9713 60.9378V63.0725H88.291V60.6952C88.291 60.4041 88.1939 60.1615 88.0481 59.9674C87.9023 59.8219 87.7079 59.7248 87.465 59.7248C87.1734 59.7248 86.9305 59.8219 86.7361 60.0159C86.5417 60.21 86.4446 60.5011 86.4446 60.9378V63.0725H85.7643V59.1911H86.4446V59.7248C86.7361 59.2882 87.1248 59.0941 87.6108 59.0941C88.1453 59.0941 88.534 59.2882 88.777 59.7248C89.0685 59.2882 89.4572 59.0941 89.9918 59.0941ZM94.608 59.0941C95.1425 59.0941 95.5798 59.2882 95.9685 59.6763C96.3573 60.0645 96.5516 60.5496 96.5516 61.1318C96.5516 61.714 96.3573 62.1992 95.9685 62.5874C95.5798 62.9755 95.1425 63.2181 94.608 63.2181C93.9277 63.2181 93.4418 62.927 93.1016 62.4418V64.6736H92.4213V59.1911H93.1016V59.8704C93.4418 59.3367 93.9277 59.0941 94.608 59.0941ZM94.5108 62.5388C94.8995 62.5388 95.2396 62.3933 95.4826 62.1507C95.7742 61.8596 95.8713 61.52 95.8713 61.1318C95.8713 60.7437 95.7742 60.4041 95.4826 60.1615C95.2396 59.8704 94.8995 59.7248 94.5108 59.7248C94.122 59.7248 93.7819 59.8704 93.4903 60.1615C93.2474 60.4041 93.1016 60.7437 93.1016 61.1318C93.1016 61.52 93.2474 61.8596 93.4903 62.1507C93.7819 62.3933 94.122 62.5388 94.5108 62.5388ZM97.3777 63.0725V57.396H98.058V63.0725H97.3777ZM99.4671 58.4634C99.3213 58.4634 99.2242 58.4149 99.127 58.3178C99.0298 58.2693 98.9812 58.1238 98.9812 58.0267C98.9812 57.8812 99.0298 57.7841 99.127 57.6871C99.2242 57.5901 99.3213 57.5415 99.4671 57.5415C99.5643 57.5415 99.6615 57.5901 99.7587 57.6871C99.8559 57.7841 99.9044 57.8812 99.9044 58.0267C99.9044 58.1238 99.8559 58.2693 99.7587 58.3178C99.6615 58.4149 99.5643 58.4634 99.4671 58.4634ZM99.127 63.0725V59.1911H99.8073V63.0725H99.127ZM104.083 59.1911H104.764V63.0725H104.083V62.4418C103.743 62.927 103.257 63.2181 102.577 63.2181C102.042 63.2181 101.557 62.9755 101.168 62.5874C100.828 62.1992 100.633 61.714 100.633 61.1318C100.633 60.5496 100.828 60.0645 101.168 59.6763C101.557 59.2882 102.042 59.0941 102.577 59.0941C103.257 59.0941 103.743 59.3367 104.083 59.8704V59.1911ZM102.674 62.5388C103.063 62.5388 103.403 62.3933 103.695 62.1507C103.938 61.8596 104.083 61.52 104.083 61.1318C104.083 60.7437 103.938 60.4041 103.695 60.1615C103.403 59.8704 103.063 59.7248 102.674 59.7248C102.285 59.7248 101.945 59.8704 101.702 60.1615C101.411 60.4041 101.314 60.7437 101.314 61.1318C101.314 61.52 101.411 61.8596 101.702 62.1507C101.945 62.3933 102.285 62.5388 102.674 62.5388ZM107.728 59.0941C108.214 59.0941 108.554 59.2397 108.845 59.5308C109.137 59.8219 109.283 60.21 109.283 60.6952V63.0725H108.602V60.7437C108.602 60.4041 108.505 60.1615 108.311 59.9674C108.165 59.8219 107.922 59.7248 107.631 59.7248C107.29 59.7248 106.999 59.8219 106.804 60.0645C106.562 60.2585 106.464 60.5981 106.464 61.0348V63.0725H105.784V59.1911H106.464V59.7248C106.756 59.2882 107.193 59.0941 107.728 59.0941ZM112.052 63.2181C111.469 63.2181 110.983 62.9755 110.595 62.5874C110.206 62.1992 110.012 61.714 110.012 61.1318C110.012 60.5496 110.206 60.0645 110.595 59.6763C110.983 59.2882 111.469 59.0941 112.052 59.0941C112.441 59.0941 112.781 59.1911 113.073 59.3367C113.413 59.5308 113.607 59.7734 113.802 60.113L113.219 60.4526C113.121 60.21 112.976 60.0645 112.733 59.9189C112.538 59.8219 112.295 59.7248 112.052 59.7248C111.664 59.7248 111.323 59.8704 111.081 60.1615C110.789 60.4041 110.692 60.7437 110.692 61.1318C110.692 61.52 110.789 61.8596 111.081 62.1022C111.323 62.3933 111.664 62.5388 112.052 62.5388C112.295 62.5388 112.538 62.4418 112.733 62.3448C112.976 62.1992 113.121 62.0537 113.219 61.8596L113.802 62.1992C113.656 62.4903 113.413 62.7329 113.073 62.927C112.781 63.1211 112.441 63.2181 112.052 63.2181ZM114.919 61.4715C114.968 61.8111 115.162 62.0537 115.405 62.2477C115.648 62.4418 115.94 62.5388 116.328 62.5388C116.863 62.5388 117.203 62.3448 117.446 62.0052L118.029 62.2963C117.64 62.8785 117.057 63.2181 116.328 63.2181C115.697 63.2181 115.162 63.024 114.773 62.6359C114.385 62.2477 114.19 61.714 114.19 61.1318C114.19 60.5496 114.385 60.0645 114.773 59.6763C115.162 59.2882 115.648 59.0941 116.28 59.0941C116.863 59.0941 117.3 59.2882 117.689 59.6763C118.029 60.113 118.224 60.5981 118.224 61.1318C118.224 61.2289 118.223 61.3259 118.175 61.4715H114.919ZM116.28 59.7248C115.891 59.7248 115.6 59.8219 115.357 60.0159C115.114 60.2585 114.968 60.5011 114.919 60.8407H117.543C117.446 60.5011 117.3 60.21 117.106 60.0159C116.863 59.8219 116.571 59.7248 116.28 59.7248ZM125.561 59.1911H126.29L125.075 63.0725H124.395L123.471 60.21L122.548 63.0725H121.868L120.653 59.1911H121.333L122.208 62.1507L123.131 59.1911H123.763L124.735 62.1507L125.561 59.1911ZM127.359 58.4634C127.213 58.4634 127.116 58.4149 127.019 58.3178C126.921 58.2693 126.873 58.1238 126.873 58.0267C126.873 57.8812 126.921 57.7841 127.019 57.6871C127.116 57.5901 127.213 57.5415 127.359 57.5415C127.456 57.5415 127.553 57.5901 127.65 57.6871C127.747 57.7841 127.796 57.8812 127.796 58.0267C127.796 58.1238 127.747 58.2693 127.65 58.3178C127.553 58.4149 127.456 58.4634 127.359 58.4634ZM126.97 63.0725V59.1911H127.65V63.0725H126.97ZM130.857 59.8219H129.788V61.9566C129.788 62.1507 129.837 62.2963 129.934 62.3933C129.983 62.4418 130.128 62.4903 130.274 62.4903C130.42 62.4903 130.614 62.4903 130.857 62.4903V63.0725C130.274 63.1696 129.837 63.1211 129.545 62.927C129.254 62.7814 129.108 62.4418 129.108 61.9566V59.8219H128.331V59.1911H129.108V58.2693L129.788 58.0752V59.1911H130.857V59.8219ZM133.627 59.0941C134.064 59.0941 134.453 59.2397 134.696 59.5308C134.988 59.8219 135.133 60.21 135.133 60.6952V63.0725H134.453V60.7437C134.453 60.4041 134.356 60.1615 134.162 59.9674C134.016 59.8219 133.773 59.7248 133.481 59.7248C133.141 59.7248 132.85 59.8219 132.655 60.0645C132.461 60.2585 132.315 60.5981 132.315 61.0348V63.0725H131.635V57.6386H132.315V59.7248C132.607 59.2882 133.044 59.0941 133.627 59.0941Z" fill="#FEFEFE"/>
<path d="M0.681641 66.7112H1.36192V71.9025H0.681641V66.7112ZM4.22883 68.1182C4.66616 68.1182 5.05489 68.2637 5.29785 68.5063C5.54081 68.7974 5.68658 69.1856 5.68658 69.6222V71.9025H5.05489V69.6707C5.05489 69.3796 4.95771 69.137 4.81193 68.9915C4.61756 68.7974 4.4232 68.7489 4.13165 68.7489C3.79151 68.7489 3.54855 68.8459 3.35418 69.04C3.15981 69.2341 3.06263 69.5252 3.06263 69.9618V71.9025H2.38235V68.2152H3.06263V68.7489C3.30559 68.3122 3.69432 68.1182 4.22883 68.1182ZM8.60208 68.8459H7.63025V70.8351C7.63025 71.0292 7.67884 71.1748 7.72743 71.2233C7.82461 71.3203 7.9218 71.3688 8.06757 71.3688C8.21335 71.3688 8.40771 71.3688 8.60208 71.3688V71.9025C8.06757 71.9996 7.63025 71.951 7.38729 71.8055C7.09574 71.6114 6.99856 71.3203 6.99856 70.8351V68.8459H6.22109V68.2152H6.99856V67.3904L7.63025 67.1963V68.2152H8.60208V68.8459ZM9.6711 70.35C9.71969 70.6896 9.86546 70.9322 10.1084 71.1262C10.3514 71.3203 10.6429 71.4174 10.9831 71.4174C11.469 71.4174 11.8577 71.2233 12.0521 70.8837L12.6352 71.1748C12.2465 71.757 11.7119 71.9996 10.9831 71.9996C10.4 71.9996 9.91405 71.854 9.52532 71.4659C9.18518 71.0777 8.99081 70.6411 8.99081 70.0589C8.99081 69.5252 9.18518 69.04 9.52532 68.6519C9.91405 68.3122 10.3514 68.1182 10.9345 68.1182C11.469 68.1182 11.9063 68.3122 12.295 68.7004C12.6352 69.0885 12.781 69.5252 12.781 70.0589C12.781 70.1559 12.781 70.2529 12.781 70.35H9.6711ZM10.9345 68.7489C10.5943 68.7489 10.3028 68.8459 10.0598 69.04C9.86546 69.2341 9.71969 69.4767 9.6711 69.8163H12.1493C12.1007 69.4281 11.9549 69.1855 11.7119 68.9915C11.5176 68.7974 11.226 68.7489 10.9345 68.7489ZM14.1901 68.8459C14.3845 68.3607 14.7732 68.1667 15.3563 68.1667V68.8459C15.0162 68.7974 14.7732 68.8944 14.5303 69.0885C14.2873 69.2341 14.1901 69.5737 14.1901 69.9618V71.9025H13.5098V68.2152H14.1901V68.8459ZM17.8345 68.1182C18.2718 68.1182 18.612 68.2637 18.8549 68.5063C19.1465 68.7974 19.2436 69.1856 19.2436 69.6222V71.9025H18.612V69.6707C18.612 69.3796 18.5148 69.137 18.369 68.9915C18.2232 68.7974 17.9803 68.7489 17.6887 68.7489C17.3972 68.7489 17.1056 68.8459 16.9113 69.04C16.7169 69.2341 16.6197 69.5252 16.6197 69.9618V71.9025H15.988V68.2152H16.6197V68.7489C16.8627 68.3122 17.3 68.1182 17.8345 68.1182ZM23.2282 68.2152H23.9084V71.9025H23.2282V71.2718C22.9366 71.757 22.4507 71.9996 21.819 71.9996C21.3331 71.9996 20.8958 71.854 20.507 71.4659C20.1183 71.0777 19.9725 70.5926 19.9725 70.0589C19.9725 69.5252 20.1183 69.04 20.507 68.7004C20.8958 68.3122 21.3331 68.1182 21.819 68.1182C22.4507 68.1182 22.9366 68.3607 23.2282 68.8459V68.2152ZM21.9162 71.4174C22.3049 71.4174 22.5965 71.2718 22.888 71.0292C23.131 70.7381 23.2282 70.447 23.2282 70.0589C23.2282 69.6707 23.131 69.3796 22.888 69.137C22.5965 68.8459 22.3049 68.7489 21.9162 68.7489C21.5275 68.7489 21.2359 68.8459 20.993 69.137C20.75 69.3796 20.6042 69.6707 20.6042 70.0589C20.6042 70.447 20.75 70.7381 20.993 71.0292C21.2359 71.2718 21.5275 71.4174 21.9162 71.4174ZM26.9211 68.8459H25.9007V70.8351C25.9007 71.0292 25.9493 71.1748 25.9979 71.2233C26.0951 71.3203 26.1923 71.3688 26.338 71.3688C26.4838 71.3688 26.6782 71.3688 26.9211 71.3688V71.9025C26.338 71.9996 25.9007 71.951 25.6577 71.8055C25.4148 71.6114 25.269 71.3203 25.269 70.8351V68.8459H24.5401V68.2152H25.269V67.3904L25.9007 67.1963V68.2152H26.9211V68.8459ZM27.9901 67.536C27.8444 67.536 27.7472 67.4874 27.6986 67.3904C27.6014 67.3419 27.5528 67.2449 27.5528 67.0993C27.5528 67.0023 27.6014 66.9052 27.6986 66.8082C27.7472 66.7112 27.8444 66.6626 27.9901 66.6626C28.0873 66.6626 28.2331 66.7112 28.2817 66.8082C28.3789 66.9052 28.4275 67.0023 28.4275 67.0993C28.4275 67.2449 28.3789 67.3419 28.2817 67.3904C28.2331 67.4874 28.0873 67.536 27.9901 67.536ZM27.65 71.9025V68.2152H28.3303V71.9025H27.65ZM32.4606 71.4659C32.0718 71.854 31.5859 71.9996 31.0514 71.9996C30.5169 71.9996 30.031 71.854 29.6423 71.4659C29.3021 71.0777 29.1078 70.6411 29.1078 70.0589C29.1078 69.5252 29.3021 69.04 29.6423 68.7004C30.031 68.3122 30.5169 68.1182 31.0514 68.1182C31.5859 68.1182 32.0718 68.3122 32.4606 68.7004C32.8007 69.04 32.9951 69.5252 32.9951 70.0589C32.9951 70.6411 32.8007 71.0777 32.4606 71.4659ZM31.0514 71.3688C31.4402 71.3688 31.7317 71.2718 31.9747 71.0292C32.2176 70.7381 32.3634 70.447 32.3634 70.0589C32.3634 69.6707 32.2176 69.3796 31.9747 69.137C31.7317 68.8944 31.4402 68.7489 31.0514 68.7489C30.6627 68.7489 30.3711 68.8944 30.1282 69.137C29.8852 69.3796 29.7394 69.6707 29.7394 70.0589C29.7394 70.447 29.8852 70.7381 30.1282 71.0292C30.3711 71.2718 30.6627 71.3688 31.0514 71.3688ZM35.619 68.1182C36.0564 68.1182 36.3965 68.2637 36.6881 68.5063C36.931 68.7974 37.0768 69.1856 37.0768 69.6222V71.9025H36.4451V69.6707C36.4451 69.3796 36.3479 69.137 36.2021 68.9915C36.0078 68.7974 35.7648 68.7489 35.5219 68.7489C35.1817 68.7489 34.9388 68.8459 34.7444 69.04C34.5014 69.2341 34.4042 69.5252 34.4042 69.9618V71.9025H33.7726V68.2152H34.4042V68.7489C34.6958 68.3122 35.0845 68.1182 35.619 68.1182ZM41.0613 68.2152H41.693V71.9025H41.0613V71.2718C40.7212 71.757 40.2352 71.9996 39.6521 71.9996C39.1176 71.9996 38.6803 71.854 38.2916 71.4659C37.9514 71.0777 37.7571 70.5926 37.7571 70.0589C37.7571 69.5252 37.9514 69.04 38.2916 68.7004C38.6803 68.3122 39.1176 68.1182 39.6521 68.1182C40.2352 68.1182 40.7212 68.3607 41.0613 68.8459V68.2152ZM39.7493 71.4174C40.0895 71.4174 40.4296 71.2718 40.6726 71.0292C40.9155 70.7381 41.0613 70.447 41.0613 70.0589C41.0613 69.6707 40.9155 69.3796 40.6726 69.137C40.4296 68.8459 40.0895 68.7489 39.7493 68.7489C39.3606 68.7489 39.0205 68.8459 38.7775 69.137C38.5345 69.3796 38.3888 69.6707 38.3888 70.0589C38.3888 70.447 38.5345 70.7381 38.7775 71.0292C39.0205 71.2718 39.3606 71.4174 39.7493 71.4174ZM42.6648 71.9025V66.5171H43.3451V71.9025H42.6648ZM47.9127 71.9996C47.4268 71.9996 47.0381 71.9025 46.6979 71.6599C46.3092 71.4659 46.0662 71.1262 45.9691 70.7381L46.5522 70.3985C46.7465 71.0292 47.2324 71.3688 47.9127 71.3688C48.3015 71.3688 48.5444 71.2718 48.7388 71.1262C48.9331 70.9807 49.0303 70.7866 49.0303 70.544C49.0303 70.3014 48.9331 70.1074 48.7388 70.0103C48.5444 69.8648 48.2529 69.7192 47.8155 69.5737C47.5726 69.5252 47.4268 69.4767 47.3296 69.4281C47.1838 69.3796 47.0381 69.3311 46.8923 69.2341C46.6979 69.137 46.6007 69.04 46.5036 68.943C46.4064 68.8944 46.3578 68.7489 46.2606 68.6033C46.212 68.4578 46.1634 68.3122 46.1634 68.1182C46.1634 67.633 46.3092 67.2934 46.6493 67.0508C46.9895 66.7597 47.3296 66.6141 47.8155 66.6141C48.2043 66.6141 48.593 66.7112 48.8846 66.9537C49.1761 67.1478 49.4191 67.4389 49.5648 67.7785L48.9817 68.1182C48.7874 67.5845 48.3986 67.2934 47.8155 67.2934C47.524 67.2934 47.281 67.3904 47.1353 67.4874C46.9409 67.633 46.8437 67.8271 46.8437 68.0696C46.8437 68.3122 46.9409 68.4578 47.0867 68.6033C47.281 68.7004 47.5726 68.8459 47.9613 68.943C48.1071 68.9915 48.2043 69.04 48.2529 69.04C48.3015 69.0885 48.3986 69.137 48.5444 69.1855C48.6902 69.2341 48.7388 69.2341 48.836 69.2826C48.8846 69.3311 48.9817 69.3311 49.0789 69.4281C49.1761 69.4767 49.2247 69.5252 49.2733 69.5737C49.3219 69.6222 49.4191 69.6707 49.4677 69.7678C49.5162 69.8163 49.5648 69.9133 49.6134 69.9618C49.662 70.0589 49.662 70.1074 49.7106 70.2044C49.7106 70.3015 49.7106 70.3985 49.7106 70.544C49.7106 70.9807 49.5648 71.3688 49.2247 71.6114C48.8846 71.9025 48.4472 71.9996 47.9127 71.9996ZM52.3832 68.8459H51.4113V70.8351C51.4113 71.0292 51.4113 71.1748 51.5085 71.2233C51.5571 71.3203 51.7029 71.3688 51.8486 71.3688C51.9944 71.3688 52.1888 71.3688 52.3832 71.3688V71.9025C51.8001 71.9996 51.4113 71.951 51.1198 71.8055C50.8768 71.6114 50.731 71.3203 50.731 70.8351V68.8459H50.0022V68.2152H50.731V67.3904L51.4113 67.1963V68.2152H52.3832V68.8459ZM56.0275 68.2152H56.7078V71.9025H56.0275V71.2718C55.736 71.757 55.2501 71.9996 54.6184 71.9996C54.1324 71.9996 53.6951 71.854 53.3064 71.4659C52.9177 71.0777 52.7719 70.5926 52.7719 70.0589C52.7719 69.5252 52.9177 69.04 53.3064 68.7004C53.6951 68.3122 54.1324 68.1182 54.6184 68.1182C55.2501 68.1182 55.736 68.3607 56.0275 68.8459V68.2152ZM54.7156 71.4174C55.1043 71.4174 55.3958 71.2718 55.6388 71.0292C55.9303 70.7381 56.0275 70.447 56.0275 70.0589C56.0275 69.6707 55.9303 69.3796 55.6388 69.137C55.3958 68.8459 55.1043 68.7489 54.7156 68.7489C54.3268 68.7489 54.0353 68.8459 53.7923 69.137C53.5493 69.3796 53.4036 69.6707 53.4036 70.0589C53.4036 70.447 53.5493 70.7381 53.7923 71.0292C54.0353 71.2718 54.3268 71.4174 54.7156 71.4174ZM59.5261 68.1182C59.9634 68.1182 60.3036 68.2637 60.5465 68.5063C60.8381 68.7974 60.9839 69.1856 60.9839 69.6222V71.9025H60.3036V69.6707C60.3036 69.3796 60.255 69.137 60.0606 68.9915C59.9149 68.7974 59.6719 68.7489 59.3804 68.7489C59.0888 68.7489 58.7973 68.8459 58.6029 69.04C58.4085 69.2341 58.3113 69.5252 58.3113 69.9618V71.9025H57.6796V68.2152H58.3113V68.7489C58.6029 68.3122 58.9916 68.1182 59.5261 68.1182ZM64.9198 66.7112H65.6001V71.9025H64.9198V71.2718C64.6282 71.757 64.1423 71.9996 63.5592 71.9996C63.0247 71.9996 62.5874 71.854 62.1987 71.4659C61.8585 71.0777 61.6642 70.5926 61.6642 70.0589C61.6642 69.5252 61.8585 69.04 62.1987 68.7004C62.5874 68.3122 63.0247 68.1182 63.5592 68.1182C64.1423 68.1182 64.6282 68.3607 64.9198 68.8459V66.7112ZM63.6078 71.4174C63.9966 71.4174 64.2881 71.2718 64.5797 71.0292C64.8226 70.7381 64.9198 70.447 64.9198 70.0589C64.9198 69.6707 64.8226 69.3796 64.5797 69.137C64.2881 68.8459 63.9966 68.7489 63.6078 68.7489C63.2677 68.7489 62.9275 68.8459 62.6846 69.137C62.4416 69.3796 62.2958 69.6707 62.2958 70.0589C62.2958 70.447 62.4416 70.7381 62.6846 71.0292C62.9275 71.2718 63.2677 71.4174 63.6078 71.4174ZM69.6332 68.2152H70.3135V71.9025H69.6332V71.2718C69.3416 71.757 68.8557 71.9996 68.224 71.9996C67.7381 71.9996 67.3008 71.854 66.9121 71.4659C66.5233 71.0777 66.3775 70.5926 66.3775 70.0589C66.3775 69.5252 66.5233 69.04 66.9121 68.7004C67.3008 68.3122 67.7381 68.1182 68.224 68.1182C68.8557 68.1182 69.3416 68.3607 69.6332 68.8459V68.2152ZM68.3212 71.4174C68.7099 71.4174 69.0015 71.2718 69.293 71.0292C69.536 70.7381 69.6332 70.447 69.6332 70.0589C69.6332 69.6707 69.536 69.3796 69.293 69.137C69.0015 68.8459 68.7099 68.7489 68.3212 68.7489C67.9325 68.7489 67.6409 68.8459 67.398 69.137C67.155 69.3796 67.0092 69.6707 67.0092 70.0589C67.0092 70.447 67.155 70.7381 67.398 71.0292C67.6409 71.2718 67.9325 71.4174 68.3212 71.4174ZM71.917 68.8459C72.16 68.3607 72.5487 68.1667 73.0832 68.1667V68.8459C72.7916 68.7974 72.5001 68.8944 72.2571 69.0885C72.0628 69.2341 71.917 69.5737 71.917 69.9618V71.9025H71.2853V68.2152H71.917V68.8459ZM76.5818 66.7112H77.2621V71.9025H76.5818V71.2718C76.2902 71.757 75.8043 71.9996 75.1726 71.9996C74.6867 71.9996 74.2494 71.854 73.8607 71.4659C73.4719 71.0777 73.3262 70.5926 73.3262 70.0589C73.3262 69.5252 73.4719 69.04 73.8607 68.7004C74.2494 68.3122 74.6867 68.1182 75.1726 68.1182C75.8043 68.1182 76.2902 68.3607 76.5818 68.8459V66.7112ZM75.2698 71.4174C75.6585 71.4174 75.9501 71.2718 76.2416 71.0292C76.4846 70.7381 76.5818 70.447 76.5818 70.0589C76.5818 69.6707 76.4846 69.3796 76.2416 69.137C75.9501 68.8459 75.6585 68.7489 75.2698 68.7489C74.8811 68.7489 74.5895 68.8459 74.3466 69.137C74.1036 69.3796 73.9578 69.6707 73.9578 70.0589C73.9578 70.447 74.1036 70.7381 74.3466 71.0292C74.5895 71.2718 74.8811 71.4174 75.2698 71.4174ZM78.7684 69.2341C78.7684 69.3796 78.8656 69.4767 79.0114 69.5737C79.1572 69.6707 79.3029 69.7192 79.4973 69.7678C79.6917 69.8163 79.9346 69.8648 80.129 69.9618C80.3234 70.0103 80.5177 70.1074 80.6635 70.3014C80.8093 70.447 80.8579 70.6411 80.8579 70.9322C80.8579 71.2233 80.7121 71.5144 80.4691 71.7085C80.2262 71.9025 79.886 71.9996 79.4487 71.9996C79.1086 71.9996 78.817 71.951 78.5255 71.8055C78.2825 71.6114 78.0881 71.4174 77.9909 71.1748L78.5255 70.8351C78.6226 71.0292 78.7198 71.1748 78.8656 71.2718C79.06 71.3688 79.2543 71.4174 79.4487 71.4174C79.6917 71.4174 79.8374 71.3688 79.9832 71.2718C80.129 71.2233 80.2262 71.0777 80.2262 70.9322C80.2262 70.7866 80.129 70.6411 79.9832 70.544C79.8374 70.4955 79.6917 70.3985 79.4487 70.35C79.2543 70.3014 79.06 70.2529 78.8656 70.1559C78.6712 70.1074 78.4769 70.0103 78.3311 69.8163C78.1853 69.6707 78.1367 69.4767 78.1367 69.2341C78.1367 68.8944 78.2339 68.6519 78.4769 68.4093C78.7684 68.2152 79.06 68.1182 79.4487 68.1182C79.7403 68.1182 80.0318 68.1667 80.2262 68.3122C80.4691 68.4578 80.6635 68.6519 80.7607 68.8944L80.2262 69.1855C80.0804 68.8944 79.8374 68.7004 79.4487 68.7004C79.2543 68.7004 79.1086 68.7489 78.9628 68.8459C78.817 68.943 78.7684 69.04 78.7684 69.2341ZM83.822 67.536C83.6762 67.536 83.579 67.4874 83.4818 67.3904C83.4332 67.3419 83.3846 67.2449 83.3846 67.0993C83.3846 67.0023 83.4332 66.9052 83.4818 66.8082C83.579 66.7112 83.6762 66.6626 83.822 66.6626C83.9191 66.6626 84.0163 66.7112 84.1135 66.8082C84.2107 66.9052 84.2593 67.0023 84.2593 67.0993C84.2593 67.2449 84.2107 67.3419 84.1135 67.3904C84.0163 67.4874 83.9191 67.536 83.822 67.536ZM83.4818 71.9025V68.2152H84.1135V71.9025H83.4818ZM86.9804 68.1182C87.4177 68.1182 87.7579 68.2637 88.0008 68.5063C88.2924 68.7974 88.4382 69.1856 88.4382 69.6222V71.9025H87.7579V69.6707C87.7579 69.3796 87.7093 69.137 87.5149 68.9915C87.3691 68.7974 87.1262 68.7489 86.8346 68.7489C86.5431 68.7489 86.2515 68.8459 86.0572 69.04C85.8628 69.2341 85.7656 69.5252 85.7656 69.9618V71.9025H85.1339V68.2152H85.7656V68.7489C86.0086 68.3122 86.4459 68.1182 86.9804 68.1182ZM94.5607 66.7112V67.3904H93.0544V71.9025H92.3255V67.3904H90.8192V66.7112H94.5607ZM97.1361 68.2152H97.8163V71.9025H97.1361V71.3688C96.8931 71.8055 96.5044 71.9996 95.9699 71.9996C95.5325 71.9996 95.1924 71.9025 94.9009 71.6114C94.6579 71.3203 94.5121 70.9807 94.5121 70.4955V68.2152H95.1438V70.447C95.1438 70.7381 95.241 70.9807 95.3868 71.1748C95.5811 71.3203 95.7755 71.4174 96.067 71.4174C96.4072 71.4174 96.6501 71.3203 96.8445 71.1262C97.0389 70.8837 97.1361 70.5926 97.1361 70.2044V68.2152ZM99.4199 68.8459C99.6628 68.3607 100.052 68.1667 100.586 68.1667V68.8459C100.295 68.7974 100.003 68.8944 99.76 69.0885C99.5656 69.2341 99.4199 69.5737 99.4199 69.9618V71.9025H98.7882V68.2152H99.4199V68.8459ZM104.376 71.9025H103.55L101.898 70.1559V71.9025H101.218V66.7112H101.898V69.8648L103.502 68.2152H104.328L102.53 70.0103L104.376 71.9025ZM108.992 68.1182C109.43 68.1182 109.77 68.2637 110.013 68.5063C110.256 68.7974 110.402 69.137 110.402 69.6222V71.9025H109.721V69.6222C109.721 69.3311 109.673 69.137 109.527 68.9915C109.381 68.7974 109.187 68.7489 108.944 68.7489C108.652 68.7489 108.409 68.8459 108.264 68.9915C108.069 69.1855 108.021 69.4767 108.021 69.8648V71.9025H107.34V69.6222C107.34 69.3311 107.292 69.137 107.146 68.9915C107 68.7974 106.806 68.7489 106.563 68.7489C106.32 68.7489 106.077 68.8459 105.883 68.9915C105.737 69.1855 105.64 69.4767 105.64 69.8648V71.9025H104.959V68.2152H105.64V68.7004C105.883 68.3122 106.223 68.1182 106.709 68.1182C107.243 68.1182 107.583 68.3122 107.826 68.7489C108.069 68.3122 108.458 68.1182 108.992 68.1182ZM111.762 70.35C111.811 70.6896 111.957 70.9322 112.199 71.1262C112.442 71.3203 112.734 71.4174 113.074 71.4174C113.56 71.4174 113.949 71.2233 114.143 70.8837L114.726 71.1748C114.338 71.757 113.803 71.9996 113.074 71.9996C112.491 71.9996 112.005 71.854 111.616 71.4659C111.276 71.0777 111.082 70.6411 111.082 70.0589C111.082 69.5252 111.276 69.04 111.616 68.6519C112.005 68.3122 112.442 68.1182 113.026 68.1182C113.56 68.1182 113.997 68.3122 114.386 68.7004C114.726 69.0885 114.872 69.5252 114.872 70.0589C114.872 70.1559 114.872 70.2529 114.872 70.35H111.762ZM113.026 68.7489C112.685 68.7489 112.394 68.8459 112.151 69.04C111.957 69.2341 111.811 69.4767 111.762 69.8163H114.24C114.192 69.4281 114.046 69.1855 113.803 68.9915C113.609 68.7974 113.317 68.7489 113.026 68.7489ZM117.496 68.1182C117.933 68.1182 118.273 68.2637 118.516 68.5063C118.808 68.7974 118.905 69.1856 118.905 69.6222V71.9025H118.273V69.6707C118.273 69.3796 118.176 69.137 118.03 68.9915C117.885 68.7974 117.642 68.7489 117.35 68.7489C117.01 68.7489 116.767 68.8459 116.573 69.04C116.378 69.2341 116.281 69.5252 116.281 69.9618V71.9025H115.649V68.2152H116.281V68.7489C116.524 68.3122 116.913 68.1182 117.496 68.1182ZM120.169 67.536C120.023 67.536 119.926 67.4874 119.828 67.3904C119.731 67.3419 119.731 67.2449 119.731 67.0993C119.731 67.0023 119.731 66.9052 119.828 66.8082C119.926 66.7112 120.023 66.6626 120.169 66.6626C120.266 66.6626 120.363 66.7112 120.46 66.8082C120.557 66.9052 120.557 67.0023 120.557 67.0993C120.557 67.2449 120.557 67.3419 120.46 67.3904C120.363 67.4874 120.266 67.536 120.169 67.536ZM119.828 71.9025V68.2152H120.46V71.9025H119.828ZM122.015 69.2341C122.015 69.3796 122.064 69.4767 122.209 69.5737C122.355 69.6707 122.549 69.7192 122.744 69.7678C122.938 69.8163 123.133 69.8648 123.376 69.9618C123.57 70.0103 123.716 70.1074 123.861 70.3014C124.007 70.447 124.104 70.6411 124.104 70.9322C124.104 71.2233 123.959 71.5144 123.716 71.7085C123.424 71.9025 123.084 71.9996 122.695 71.9996C122.355 71.9996 122.015 71.951 121.772 71.8055C121.529 71.6114 121.335 71.4174 121.238 71.1748L121.772 70.8351C121.821 71.0292 121.966 71.1748 122.112 71.2718C122.258 71.3688 122.452 71.4174 122.695 71.4174C122.89 71.4174 123.084 71.3688 123.23 71.2718C123.376 71.2233 123.424 71.0777 123.424 70.9322C123.424 70.7866 123.376 70.6411 123.23 70.544C123.084 70.4955 122.89 70.3985 122.695 70.35C122.501 70.3014 122.307 70.2529 122.112 70.1559C121.869 70.1074 121.723 70.0103 121.578 69.8163C121.432 69.6707 121.335 69.4767 121.335 69.2341C121.335 68.8944 121.48 68.6519 121.723 68.4093C121.966 68.2152 122.307 68.1182 122.647 68.1182C122.987 68.1182 123.23 68.1667 123.473 68.3122C123.716 68.4578 123.91 68.6519 124.007 68.8944L123.473 69.1855C123.327 68.8944 123.084 68.7004 122.647 68.7004C122.501 68.7004 122.307 68.7489 122.209 68.8459C122.064 68.943 122.015 69.04 122.015 69.2341ZM126.728 68.8459H125.757V70.8351C125.757 71.0292 125.757 71.1748 125.854 71.2233C125.902 71.3203 126.048 71.3688 126.194 71.3688C126.34 71.3688 126.534 71.3688 126.728 71.3688V71.9025C126.145 71.9996 125.757 71.951 125.465 71.8055C125.222 71.6114 125.076 71.3203 125.076 70.8351V68.8459H124.347V68.2152H125.076V67.3904L125.757 67.1963V68.2152H126.728V68.8459ZM130.373 68.2152H131.053V71.9025H130.373V71.2718C130.081 71.757 129.595 71.9996 128.964 71.9996C128.478 71.9996 128.04 71.854 127.652 71.4659C127.263 71.0777 127.117 70.5926 127.117 70.0589C127.117 69.5252 127.263 69.04 127.652 68.7004C128.04 68.3122 128.478 68.1182 128.964 68.1182C129.595 68.1182 130.081 68.3607 130.373 68.8459V68.2152ZM129.061 71.4174C129.45 71.4174 129.741 71.2718 130.033 71.0292C130.276 70.7381 130.373 70.447 130.373 70.0589C130.373 69.6707 130.276 69.3796 130.033 69.137C129.741 68.8459 129.45 68.7489 129.061 68.7489C128.672 68.7489 128.38 68.8459 128.138 69.137C127.895 69.3796 127.749 69.6707 127.749 70.0589C127.749 70.447 127.895 70.7381 128.138 71.0292C128.38 71.2718 128.672 71.4174 129.061 71.4174ZM133.871 68.1182C134.309 68.1182 134.649 68.2637 134.94 68.5063C135.183 68.7974 135.329 69.1856 135.329 69.6222V71.9025H134.649V69.6707C134.649 69.3796 134.6 69.137 134.406 68.9915C134.26 68.7974 134.017 68.7489 133.726 68.7489C133.434 68.7489 133.142 68.8459 132.948 69.04C132.754 69.2341 132.657 69.5252 132.657 69.9618V71.9025H132.025V68.2152H132.657V68.7489C132.948 68.3122 133.337 68.1182 133.871 68.1182Z" fill="#FEFEFE"/>
<path d="M149.077 0C160.059 0 168.999 8.92721 168.999 19.8921C168.999 30.2264 161.079 38.7654 150.972 39.7358C150.632 40.415 149.903 40.9002 149.077 40.9002C147.911 40.9002 146.939 39.9298 146.939 38.7169C146.939 37.5525 147.911 36.5821 149.077 36.5821C149.854 36.5821 150.486 36.9703 150.875 37.5525C159.864 36.6307 166.861 29.0619 166.861 19.8921C166.861 10.1401 158.892 2.18328 149.077 2.18328C139.261 2.18328 131.292 10.1401 131.292 19.8921H129.154C129.154 8.92721 138.095 0 149.077 0Z" fill="#2494F0"/>
<path d="M149.079 5.14258C157.242 5.14258 163.899 11.7409 163.899 19.8919C163.899 28.0428 157.242 34.6897 149.079 34.6897C140.915 34.6897 134.307 28.0428 134.307 19.8919C134.307 11.7409 140.915 5.14258 149.079 5.14258ZM149.079 32.5064C156.027 32.5064 161.712 26.8784 161.712 19.8919C161.712 12.9539 156.027 7.32586 149.079 7.32586C142.13 7.32586 136.445 12.9539 136.445 19.8919C136.445 26.8784 142.13 32.5064 149.079 32.5064Z" fill="#FEFEFE"/>
<path d="M147.475 12.8086C147.718 12.1779 148.349 11.7412 149.078 11.7412C150.05 11.7412 150.828 12.566 150.828 13.5364C150.828 14.5067 150.05 15.283 149.078 15.283C148.495 15.283 148.009 14.9919 147.718 14.6037C145.385 15.1859 143.685 17.3207 143.685 19.7951C143.685 22.8032 146.114 25.2291 149.078 25.2291C152.091 25.2291 154.521 22.8032 154.521 19.7951H156.27C156.27 23.7735 153.063 26.9757 149.078 26.9757C145.142 26.9757 141.887 23.7735 141.887 19.7951C141.887 16.3989 144.268 13.5364 147.475 12.8086Z" fill="#2494F0"/>
<path fill-rule="evenodd" clip-rule="evenodd" d="M142.322 18.2907C142.322 18.2907 145.967 21.978 146.598 22.6088C147.279 23.191 148.396 23.7732 149.271 23.288C150.194 22.8514 151.895 21.1533 151.895 21.1533C151.506 21.3958 150.729 21.6869 149.174 20.8136C147.57 19.9403 146.355 18.0967 145.043 17.8056C143.731 17.5144 142.322 18.2907 142.322 18.2907Z" fill="#56B471"/>
<path fill-rule="evenodd" clip-rule="evenodd" d="M148.98 19.7951C148.98 19.7951 149.564 20.2803 150.39 20.5229C151.264 20.7655 151.847 20.6199 152.285 20.5229C152.771 20.3774 154.083 18.9704 154.083 18.9704L157.533 15.1375C155.443 13.9731 154.083 14.3612 152.673 15.9623C152.139 16.593 148.98 19.7951 148.98 19.7951Z" fill="#FEFEFE"/>
</svg>
