<svg width="235" height="76" viewBox="0 0 235 76" fill="none" xmlns="http://www.w3.org/2000/svg">
<g clip-path="url(#clip0_2005_448)">
<path fillRule="evenodd" clipRule="evenodd" d="M25.4461 72.3661C24.742 73.2964 23.862 74.0005 22.8562 74.4782C21.8504 74.956 20.7189 75.2074 19.512 75.2074C17.8776 75.2074 16.394 74.8302 15.0865 74.1011C13.779 73.3719 12.2703 72.0392 10.5605 70.1785C8.57408 69.9019 6.78881 69.2482 5.22985 68.1418C3.67089 67.0606 2.46395 65.6525 1.58389 63.9426C0.703825 62.2328 0.276367 60.3218 0.276367 58.26C0.276367 55.9718 0.804403 53.9351 1.83533 52.0995C2.86626 50.264 4.2995 48.8308 6.13506 47.7998C7.97061 46.7689 10.0325 46.2409 12.3206 46.2409C14.6088 46.2409 16.6455 46.7689 18.481 47.7998C20.3166 48.8308 21.7498 50.264 22.7808 52.0995C23.8368 53.9351 24.3649 55.9718 24.3649 58.26C24.3649 60.9504 23.6357 63.3392 22.2024 65.3507C20.7692 67.3875 18.8582 68.7955 16.4946 69.6002C17.0227 70.1785 17.5256 70.5808 18.0284 70.8574C18.5313 71.1089 19.0594 71.2346 19.6126 71.2346C20.9704 71.2346 22.1773 70.6562 23.1831 69.4996L25.4461 72.3661ZM5.43101 58.26C5.43101 59.6932 5.73274 60.9756 6.33621 62.1071C6.93968 63.2386 7.74431 64.1187 8.80038 64.7473C9.85645 65.3759 11.0131 65.7028 12.3206 65.7028C13.6281 65.7028 14.7848 65.3759 15.8409 64.7473C16.8969 64.1187 17.7016 63.2386 18.305 62.1071C18.9085 60.9756 19.2102 59.6932 19.2102 58.26C19.2102 56.8267 18.9085 55.5444 18.305 54.4128C17.7016 53.2813 16.8969 52.4013 15.8409 51.7727C14.7848 51.1441 13.6281 50.8172 12.3206 50.8172C11.0131 50.8172 9.85645 51.1441 8.80038 51.7727C7.74431 52.4013 6.93968 53.2813 6.33621 54.4128C5.73274 55.5444 5.43101 56.8267 5.43101 58.26ZM42.3433 64.8981L44.2794 69.8768H49.61L39.7785 46.6432H34.7496L24.9432 69.8768H30.1481L32.0843 64.8981H42.293H42.3433ZM40.7591 60.8247H33.7941L37.2892 51.9235L40.7843 60.8247H40.7591ZM62.1572 70.2791C59.9193 70.2791 57.8826 69.7762 56.0722 68.7453C54.2618 67.7143 52.8285 66.2811 51.7976 64.4707C50.7667 62.6351 50.2386 60.5733 50.2386 58.2851C50.2386 55.997 50.7667 53.91 51.7976 52.0995C52.8285 50.264 54.2618 48.8559 56.0722 47.825C57.8826 46.794 59.9193 46.2911 62.1823 46.2911C64.0933 46.2911 65.8031 46.6432 67.3621 47.3472C68.8959 48.0513 70.2034 49.0822 71.2344 50.3897L67.9656 53.5831C66.482 51.7727 64.6465 50.8675 62.4338 50.8675C61.076 50.8675 59.869 51.1943 58.7878 51.823C57.7317 52.4516 56.8768 53.3316 56.2985 54.4631C55.695 55.5946 55.3933 56.877 55.3933 58.3103C55.3933 59.7435 55.695 61.0259 56.2985 62.1574C56.902 63.2889 57.7317 64.1689 58.7878 64.7976C59.8439 65.4262 61.076 65.7531 62.4338 65.7531C64.6214 65.7531 66.482 64.8227 67.9656 62.9871L71.2344 66.1805C70.1783 67.5383 68.8959 68.5692 67.337 69.2733C65.778 69.9773 64.0682 70.3294 62.1572 70.3294V70.2791ZM74.654 46.6432H79.7332V69.8768H74.654V46.6432ZM92.1798 70.2791C90.4448 70.2791 88.7602 70.0276 87.1258 69.5247C85.4914 69.0218 84.209 68.3681 83.2032 67.5886L84.9382 63.5403C85.8937 64.2695 87 64.8478 88.3075 65.3004C89.6151 65.7531 90.8974 65.9542 92.2049 65.9542C93.6382 65.9542 94.7194 65.7279 95.3983 65.2753C96.0772 64.8227 96.4292 64.2192 96.4292 63.4649C96.4292 62.9117 96.2281 62.4591 95.8258 62.0819C95.4235 61.7048 94.8954 61.4282 94.2668 61.2019C93.6382 60.9756 92.7581 60.7493 91.6769 60.4727C89.9922 60.0452 88.6344 59.6429 87.5532 59.2155C86.4971 58.788 85.5668 58.1091 84.8124 57.2039C84.0581 56.2735 83.6558 55.0415 83.6558 53.4825C83.6558 52.1247 84.0078 50.9178 84.6867 49.8114C85.3656 48.705 86.4217 47.8501 87.8046 47.1964C89.1876 46.5426 90.8974 46.2409 92.909 46.2409C94.3171 46.2409 95.6749 46.4169 97.0327 46.7689C98.3905 47.1209 99.5472 47.6238 100.553 48.3027L98.994 52.3761C96.9573 51.1692 94.9206 50.5406 92.909 50.5406C91.4758 50.5406 90.4197 50.792 89.7408 51.2698C89.0619 51.7475 88.7099 52.4013 88.7099 53.2059C88.7099 54.0105 89.1122 54.5889 89.8917 54.9912C90.6711 55.3935 91.8781 55.7707 93.4873 56.1478C95.172 56.5753 96.5298 56.9776 97.611 57.4051C98.6671 57.8325 99.5975 58.4863 100.352 59.3915C101.106 60.2967 101.508 61.5288 101.508 63.0877C101.508 64.4204 101.156 65.6273 100.452 66.7337C99.7483 67.8401 98.6923 68.695 97.2842 69.3487C95.8761 70.0025 94.1662 70.3042 92.1547 70.3042L92.1798 70.2791ZM128.941 65.5016V69.8768H112.321V66.3817L120.794 57.9079C121.7 57.0027 122.303 56.2233 122.605 55.5695C122.906 54.9157 123.083 54.262 123.083 53.6334C123.083 52.703 122.781 51.999 122.177 51.4961C121.574 50.9932 120.694 50.7417 119.562 50.7417C118.607 50.7417 117.727 50.9429 116.947 51.3201C116.168 51.6972 115.514 52.3007 115.011 53.055L111.315 50.5406C112.17 49.1828 113.352 48.1267 114.86 47.3724C116.369 46.618 118.104 46.2157 120.04 46.2157C121.674 46.2157 123.108 46.4923 124.34 47.0706C125.572 47.6238 126.527 48.4284 127.206 49.4594C127.885 50.4903 128.237 51.6972 128.237 53.1053C128.237 54.3626 127.986 55.5444 127.483 56.6507C126.98 57.7571 125.999 59.0143 124.566 60.4224L119.512 65.4765H128.966L128.941 65.5016ZM140.432 70.2791C138.622 70.2791 136.987 69.8013 135.554 68.8458C134.121 67.8903 133.015 66.5074 132.21 64.7221C131.405 62.9117 131.003 60.7744 131.003 58.26C131.003 55.7455 131.405 53.6082 132.21 51.7978C133.015 49.9874 134.121 48.6044 135.554 47.6741C136.987 46.7186 138.597 46.2409 140.432 46.2409C142.268 46.2409 143.877 46.7186 145.31 47.6741C146.744 48.6296 147.85 50.0125 148.655 51.7978C149.459 53.6082 149.861 55.7455 149.861 58.26C149.861 60.7744 149.459 62.9117 148.655 64.7221C147.85 66.5325 146.744 67.9155 145.31 68.8458C143.877 69.8013 142.268 70.2791 140.432 70.2791ZM140.432 65.7279C141.765 65.7279 142.821 65.1244 143.6 63.8924C144.355 62.6854 144.757 60.7996 144.757 58.26C144.757 55.7204 144.38 53.8345 143.6 52.6276C142.846 51.4206 141.79 50.792 140.432 50.792C139.074 50.792 138.069 51.3955 137.314 52.6276C136.56 53.8345 136.158 55.7204 136.158 58.26C136.158 60.7996 136.535 62.6854 137.314 63.8924C138.069 65.0993 139.125 65.7279 140.432 65.7279ZM168.569 65.5016V69.8768H151.948V66.3817L160.422 57.9079C161.327 57.0027 161.931 56.2233 162.233 55.5695C162.534 54.9157 162.71 54.262 162.71 53.6334C162.71 52.703 162.409 51.999 161.805 51.4961C161.202 50.9932 160.322 50.7417 159.19 50.7417C158.235 50.7417 157.355 50.9429 156.575 51.3201C155.796 51.6972 155.142 52.3007 154.639 53.055L150.943 50.5406C151.798 49.1828 152.979 48.1267 154.488 47.3724C155.997 46.618 157.732 46.2157 159.668 46.2157C161.302 46.2157 162.736 46.4923 163.968 47.0706C165.2 47.6238 166.155 48.4284 166.834 49.4594C167.513 50.4903 167.865 51.6972 167.865 53.1053C167.865 54.3626 167.614 55.5444 167.111 56.6507C166.608 57.7571 165.627 59.0143 164.194 60.4224L159.14 65.4765H168.594L168.569 65.5016ZM178.225 55.3935C181.317 55.3935 183.606 56.0472 185.089 57.3548C186.573 58.6623 187.302 60.3973 187.302 62.61C187.302 64.0181 186.975 65.3256 186.296 66.4822C185.617 67.6389 184.611 68.5692 183.228 69.2733C181.845 69.9773 180.161 70.3294 178.149 70.3294C176.59 70.3294 175.081 70.1031 173.573 69.6756C172.064 69.2481 170.807 68.6195 169.751 67.8401L171.762 63.7163C172.592 64.3701 173.573 64.8981 174.654 65.2502C175.735 65.6273 176.867 65.8033 178.023 65.8033C179.306 65.8033 180.312 65.5268 181.041 64.9987C181.77 64.4707 182.147 63.7163 182.147 62.786C182.147 61.8556 181.77 61.0259 180.99 60.523C180.236 60.0201 178.903 59.7686 177.018 59.7686H171.385L172.517 46.6935H185.944V51.0183H176.766L176.414 55.4438H178.199L178.225 55.3935Z" fill="white"/>
<path fillRule="evenodd" clipRule="evenodd" d="M206.688 -3.05176e-05C221.926 -3.05176e-05 234.322 12.3962 234.322 27.6339C234.322 41.9914 223.334 53.8094 209.329 55.142C208.826 56.0975 207.845 56.7764 206.688 56.7764C205.029 56.7764 203.696 55.4438 203.696 53.7842C203.696 52.1247 205.029 50.792 206.688 50.792C207.744 50.792 208.675 51.3452 209.203 52.1498C221.599 50.8926 231.33 40.3822 231.33 27.6339C231.33 14.0558 220.292 2.99217 206.688 2.99217C193.085 2.99217 182.047 14.0306 182.047 27.6339H179.029C179.029 12.3962 191.426 -3.05176e-05 206.663 -3.05176e-05L206.688 -3.05176e-05Z" fill="#4286C7"/>
<path fillRule="evenodd" clipRule="evenodd" d="M206.689 7.14095C218.004 7.14095 227.207 16.3439 227.207 27.6589C227.207 38.974 218.004 48.1769 206.689 48.1769C195.374 48.1769 186.171 38.974 186.171 27.6589C186.171 16.3439 195.374 7.14095 206.689 7.14095ZM206.689 45.1344C216.344 45.1344 224.19 37.2893 224.19 27.6338C224.19 17.9783 216.344 10.1332 206.689 10.1332C197.033 10.1332 189.188 17.9783 189.188 27.6338C189.188 37.2893 197.033 45.1344 206.689 45.1344Z" fill="white"/>
<path fillRule="evenodd" clipRule="evenodd" d="M204.451 17.8023C204.828 16.9222 205.683 16.3188 206.688 16.3188C208.046 16.3188 209.127 17.4 209.127 18.7578C209.127 20.1156 208.046 21.1968 206.688 21.1968C205.909 21.1968 205.205 20.8197 204.777 20.2413C201.559 21.0962 199.195 24.013 199.195 27.483C199.195 31.6318 202.565 35.0012 206.714 35.0012C210.862 35.0012 214.232 31.6318 214.232 27.483H216.671C216.671 32.9645 212.195 37.4402 206.714 37.4402C201.232 37.4402 196.756 32.9645 196.756 27.483C196.756 22.7558 200.05 18.8081 204.476 17.7772L204.451 17.8023Z" fill="#4286C7"/>
<path fillRule="evenodd" clipRule="evenodd" d="M197.284 25.421C197.284 25.421 202.389 30.5505 203.269 31.3803C204.149 32.21 205.733 32.9644 206.965 32.3357C208.197 31.7071 210.561 29.3435 210.561 29.3435C210.007 29.6704 209.002 30.0727 206.814 28.8658C204.626 27.684 202.891 25.0941 201.081 24.6918C199.271 24.2895 197.284 25.3958 197.284 25.3958V25.421Z" fill="#51B36D"/>
<path fillRule="evenodd" clipRule="evenodd" d="M206.512 27.5081C206.512 27.5081 207.367 28.1619 208.524 28.4888C209.68 28.8156 210.51 28.6648 211.164 28.4888C211.793 28.3127 213.603 26.3263 213.603 26.3263L218.38 21.0208C215.489 19.4367 213.578 19.9647 211.642 22.1775C210.887 23.0324 206.512 27.5333 206.512 27.5333V27.5081Z" fill="white"/>
</g>
<defs>
<clipPath id="clip0_2005_448">
<rect width="235" height="76" fill="white"/>
</clipPath>
</defs>
</svg>
