<svg width="288" height="288" viewBox="0 0 288 288" fill="none" xmlns="http://www.w3.org/2000/svg">
<rect width="288" height="288" fill="#306BA3"/>
<path fill-rule="evenodd" clip-rule="evenodd" d="M114.299 73.709C123.398 69.9399 133.151 68 143 68C152.849 68 162.602 69.9399 171.701 73.709C180.801 77.4781 189.069 83.0026 196.033 89.967C202.997 96.9314 208.522 105.199 212.291 114.299C216.06 123.398 218 133.151 218 143C218 152.849 216.06 162.602 212.291 171.701C208.522 180.801 202.997 189.069 196.033 196.033C194.719 197.347 193.359 198.61 191.955 199.819C191.735 200.031 191.501 200.231 191.254 200.416C185.392 205.342 178.799 209.351 171.701 212.291C162.602 216.06 152.849 218 143 218C133.151 218 123.398 216.06 114.299 212.291C105.199 208.522 96.9314 202.997 89.967 196.033C83.0026 189.069 77.4781 180.801 73.709 171.701C69.9399 162.602 68 152.849 68 143C68 133.151 69.9399 123.398 73.709 114.299C77.4781 105.199 83.0026 96.9314 89.967 89.967C96.9314 83.0026 105.199 77.4781 114.299 73.709ZM188.863 181.685C192.836 176.975 196.067 171.673 198.433 165.961C201.448 158.681 203 150.879 203 143C203 135.121 201.448 127.319 198.433 120.039C195.417 112.759 190.998 106.145 185.426 100.574C179.855 95.0021 173.241 90.5825 165.961 87.5672C158.681 84.5519 150.879 83 143 83C135.121 83 127.319 84.5519 120.039 87.5672C112.759 90.5825 106.145 95.0021 100.574 100.574C95.0021 106.145 90.5825 112.759 87.5672 120.039C84.5519 127.319 83 135.121 83 143C83 150.879 84.5519 158.681 87.5672 165.961C89.9332 171.673 93.1638 176.975 97.1371 181.686C99.4506 178.337 102.308 175.366 105.617 172.906C112.088 168.095 119.937 165.498 128 165.5M108.366 191.995C109.905 189.25 112.012 186.843 114.566 184.944C118.449 182.057 123.159 180.499 127.998 180.5H158C162.844 180.498 167.563 182.06 171.448 184.954C173.997 186.851 176.099 189.255 177.635 191.994C174.003 194.561 170.089 196.723 165.961 198.433C158.681 201.448 150.879 203 143 203C135.121 203 127.319 201.448 120.039 198.433C115.911 196.723 111.997 194.562 108.366 191.995ZM188.863 181.685C186.555 178.344 183.706 175.379 180.407 172.923C173.932 168.101 166.073 165.498 158 165.5C157.999 165.5 158.001 165.5 158 165.5H128M121.787 106.787C127.413 101.161 135.044 98 143 98C150.956 98 158.587 101.161 164.213 106.787C169.839 112.413 173 120.044 173 128C173 135.956 169.839 143.587 164.213 149.213C158.587 154.839 150.956 158 143 158C135.044 158 127.413 154.839 121.787 149.213C116.161 143.587 113 135.956 113 128C113 120.044 116.161 112.413 121.787 106.787ZM143 113C139.022 113 135.206 114.58 132.393 117.393C129.58 120.206 128 124.022 128 128C128 131.978 129.58 135.794 132.393 138.607C135.206 141.42 139.022 143 143 143C146.978 143 150.794 141.42 153.607 138.607C156.42 135.794 158 131.978 158 128C158 124.022 156.42 120.206 153.607 117.393C150.794 114.58 146.978 113 143 113Z" fill="#BDD5EB"/>
</svg>
